<svg width="20" height="20" viewBox="0 0 20 20" fill="none" xmlns="http://www.w3.org/2000/svg">
<path d="M10.0003 1.66602C5.48283 1.66602 1.66699 5.48185 1.66699 9.99935C1.66699 12.6568 2.99366 15.0643 5.00033 16.6027V16.666H5.08533C6.47533 17.7035 8.17783 18.3327 10.0003 18.3327C11.8228 18.3327 13.5253 17.7035 14.9153 16.666H15.0003V16.6027C17.007 15.0643 18.3337 12.6577 18.3337 9.99935C18.3337 5.48185 14.5178 1.66602 10.0003 1.66602ZM6.72866 15.7718C6.97616 14.651 7.97366 13.8102 9.16699 13.8102H10.8337C12.027 13.8102 13.0245 14.6518 13.272 15.7718C12.2987 16.336 11.1803 16.666 10.0003 16.666C8.82033 16.666 7.70199 16.336 6.72866 15.7718ZM14.6753 14.7002C14.0445 13.2002 12.5603 12.1435 10.8337 12.1435H9.16699C7.44033 12.1435 5.95533 13.201 5.32533 14.7002C4.10283 13.4844 3.33366 11.8127 3.33366 9.99935C3.33366 6.38518 6.38616 3.33268 10.0003 3.33268C13.6145 3.33268 16.667 6.38518 16.667 9.99935C16.667 11.8127 15.8978 13.4844 14.6753 14.7002Z" fill="#1E2843"/>
<path d="M10.0003 5C8.10033 5 6.66699 6.43333 6.66699 8.33333C6.66699 10.2333 8.10033 11.6667 10.0003 11.6667C11.9003 11.6667 13.3337 10.2333 13.3337 8.33333C13.3337 6.43333 11.9003 5 10.0003 5ZM10.0003 10C9.01866 10 8.33366 9.315 8.33366 8.33333C8.33366 7.35167 9.01866 6.66667 10.0003 6.66667C10.982 6.66667 11.667 7.35167 11.667 8.33333C11.667 9.315 10.982 10 10.0003 10Z" fill="#1E2843"/>
</svg>
