<svg width="20" height="20" viewBox="0 0 20 20" fill="none" xmlns="http://www.w3.org/2000/svg">
<path d="M17.5005 7.07935H16.3172L13.2238 1.66602L11.7772 2.49268L14.398 7.07935H5.60301L8.22468 2.49268L6.77718 1.66602L3.68384 7.07935H2.50051C2.24051 7.07935 1.99634 7.20102 1.83801 7.40685C1.68051 7.61352 1.62801 7.88185 1.69634 8.13185L4.02884 16.6852C4.22634 17.4085 4.88801 17.9127 5.63718 17.9127H14.3647C15.113 17.9127 15.7747 17.4085 15.973 16.6835L18.3055 8.13102C18.3738 7.88102 18.3222 7.61268 18.1638 7.40602C18.0047 7.20102 17.7605 7.07935 17.5005 7.07935ZM14.3638 16.246V17.0793V16.246H5.63718L3.59218 8.74602H16.4088L14.3638 16.246Z" fill="#1E2843"/>
<path d="M7.5 10.4141H9.16667V14.5807H7.5V10.4141ZM10.8333 10.4141H12.5V14.5807H10.8333V10.4141Z" fill="#1E2843"/>
</svg>
