<svg width="24" height="24" viewBox="0 0 24 24" fill="none" xmlns="http://www.w3.org/2000/svg">
<path d="M17.4314 18.1429L17.3338 18.4352C17.2747 18.6124 17.3101 18.8127 17.4397 18.9593C17.6345 19.1792 17.9736 19.2004 18.1942 19.0053C18.4145 18.8103 18.4354 18.4712 18.2407 18.2508L17.4314 18.1429ZM17.4314 18.1429L17.7334 18.0818C17.9164 18.0447 18.1106 18.1042 18.2404 18.2505L17.4314 18.1429ZM5.85677 17.4337L5.56448 17.3362C5.38739 17.2771 5.18729 17.3124 5.04067 17.4417C4.82022 17.6367 4.79943 17.9761 4.99443 18.1965C5.18955 18.4171 5.52868 18.4375 5.74889 18.243L5.85677 17.4337ZM5.85677 17.4337L5.9179 17.7358C5.95493 17.9188 5.8955 18.113 5.7492 18.2428L5.85677 17.4337ZM6.56618 5.85843L6.66346 5.56686C6.72259 5.38964 6.68723 5.18945 6.55773 5.04282C6.5577 5.04279 6.55768 5.04276 6.55765 5.04273M6.56618 5.85843L5.33937 4.47248C5.8494 4.02134 6.63111 4.06924 7.08225 4.57926L6.55765 5.04273M6.56618 5.85843L6.26246 5.92056C6.08298 5.95728 5.88724 5.89853 5.75669 5.75132M6.56618 5.85843L5.75669 5.75132M6.55765 5.04273C6.36261 4.82257 6.0235 4.80189 5.80315 4.9968C5.58278 5.19172 5.56193 5.53087 5.75669 5.75132M6.55765 5.04273L5.75669 5.75132M20.2692 12.7746L20.1315 12.4993L20.3018 12.2429C20.4057 12.0866 20.5853 11.9915 20.7804 12.0035C21.0742 12.0215 21.2992 12.276 21.2812 12.5698C21.2632 12.8635 21.0088 13.0886 20.715 13.0706C20.5199 13.0587 20.3532 12.9424 20.2692 12.7746ZM17.7769 11.8029L17.7954 12.3562L17.7095 12.9031C17.5254 14.0745 16.992 15.1223 16.2227 15.9442L15.8442 16.3486L15.3967 16.6749C14.487 17.338 13.382 17.7396 12.1968 17.7792L11.6435 17.7978L11.0966 17.7118C9.92514 17.5278 8.87737 16.9944 8.05547 16.2251L7.6511 15.8466L7.32482 15.3991C6.66163 14.4894 6.2601 13.3843 6.22043 12.1992L6.20191 11.6459L6.28784 11.099C6.4719 9.92751 7.00533 8.87974 7.77461 8.05783L8.15308 7.65347L8.60062 7.32719C9.51029 6.664 10.6153 6.26247 11.8005 6.2228L12.3538 6.20428L12.9007 6.2902C14.0722 6.47427 15.1199 7.0077 15.9418 7.77698L16.3462 8.15545L16.6725 8.60299C17.3357 9.51266 17.7372 10.6177 17.7769 11.8029ZM11.2251 20.2716L11.5004 20.1339L11.7567 20.3042C11.913 20.408 12.0081 20.5876 11.9962 20.7827C11.9782 21.0765 11.7237 21.3016 11.4299 21.2836C11.1361 21.2656 10.911 21.0111 10.929 20.7174C10.941 20.5222 11.0573 20.3556 11.2251 20.2716ZM3.72807 11.2275L3.86582 11.5027L3.69549 11.7591C3.59166 11.9154 3.41205 12.0105 3.21694 11.9986C2.92315 11.9806 2.69806 11.7261 2.71606 11.4323C2.73406 11.1385 2.98853 10.9134 3.28232 10.9314C3.47743 10.9434 3.64408 11.0597 3.72807 11.2275ZM12.7722 3.73043L12.4969 3.86819L12.2406 3.69786C12.0843 3.59402 11.9892 3.41442 12.0011 3.21931C12.0191 2.92551 12.2736 2.70043 12.5674 2.71843C12.8612 2.73643 13.0863 2.9909 13.0683 3.28469C13.0563 3.4798 12.94 3.64645 12.7722 3.73043ZM18.4342 6.66629L18.1404 6.56758L18.0794 6.26628C18.0424 6.08329 18.1018 5.88904 18.2481 5.75928C18.4686 5.56428 18.8079 5.58507 19.0029 5.80552C19.1978 6.02584 19.1771 6.36488 18.957 6.55994C18.8095 6.69026 18.608 6.72467 18.4342 6.66629Z" stroke="#B7BCCA" stroke-width="1.4"/>
<line x1="9.68695" y1="19.0609" x2="16.0609" y2="6.31305" stroke="white" stroke-width="1.4" stroke-linecap="round"/>
<line x1="8.68695" y1="18.0609" x2="15.0609" y2="5.31305" stroke="#B7BCCA" stroke-width="1.4" stroke-linecap="round"/>
</svg>
