<svg width="24" height="24" viewBox="0 0 24 24" fill="none" xmlns="http://www.w3.org/2000/svg">
<g clip-path="url(#clip0)">
<path d="M2.20111 13.6123C2.12933 13.0359 2.11345 12.4504 2.15454 11.8736C2.1944 11.2987 2.28996 10.7262 2.4398 10.1697C2.58964 9.61324 2.79189 9.07154 3.04435 8.55281C3.29877 8.02949 3.60578 7.53123 3.95314 7.07088C4.31012 6.59919 4.71439 6.1614 5.15422 5.77121C6.05549 4.97027 7.14878 4.3379 8.29443 3.95821C8.85486 3.7709 9.43526 3.64019 10.02 3.56701C10.5924 3.49637 11.1765 3.48012 11.7592 3.52131C12.3333 3.56167 12.9071 3.6576 13.4631 3.80657C14.019 3.95555 14.564 4.15939 15.0808 4.41062C15.6052 4.66677 16.1038 4.97241 16.5628 5.31941C17.034 5.67552 17.4717 6.07979 17.8624 6.52049C18.2632 6.97268 18.6219 7.46995 18.9279 7.99996C18.9348 8.01193 18.9493 8.01651 18.9612 8.0096L19.8032 7.5235C20.1606 7.31714 20.6 7.60821 20.5494 8.01781L20.1431 11.3066C20.1024 11.6361 19.7576 11.8352 19.4519 11.7057L16.4006 10.4131C16.0206 10.2521 15.9882 9.72608 16.3456 9.51972L17.1858 9.03462C17.1978 9.02771 17.2028 9.01193 17.1959 8.99996C16.9574 8.58686 16.6783 8.1995 16.3669 7.84813C16.0627 7.50529 15.7236 7.19187 15.3571 6.91504C15.0004 6.64524 14.6119 6.40646 14.2045 6.2087C13.8025 6.01241 13.379 5.85503 12.9455 5.73813C12.512 5.62124 12.0662 5.54719 11.6208 5.51568C11.1682 5.48371 10.7124 5.49628 10.2672 5.55123C9.81314 5.60671 9.36186 5.70906 8.92615 5.85439C8.03577 6.15021 7.18324 6.64358 6.48136 7.26589C6.14025 7.56906 5.8251 7.90921 5.54827 8.27573C5.2776 8.63292 5.04019 9.02171 4.84143 9.42745C4.6465 9.82982 4.48739 10.2542 4.37136 10.6873C4.25483 11.1194 4.18078 11.5652 4.14941 12.0128C4.11717 12.461 4.12924 12.9159 4.18532 13.365C4.23967 13.8152 4.34239 14.2651 4.48749 14.7044C4.63758 15.1524 4.83351 15.5877 5.07151 16C5.30951 16.4122 5.58858 16.7995 5.89949 17.1501C6.20839 17.4971 6.54667 17.811 6.90982 18.084C7.27024 18.3563 7.65767 18.5933 8.06378 18.7907C8.46578 18.987 8.88883 19.1458 9.32136 19.2609C9.75439 19.3769 10.2015 19.4514 10.6461 19.4834C11.0982 19.5145 11.5527 19.5038 11.9988 19.4483C12.4546 19.3918 12.9059 19.2895 13.3399 19.1452C14.2289 18.849 15.0815 18.3578 15.7847 17.7337C16.1275 17.4295 16.4409 17.0903 16.7177 16.7238C16.9875 16.3671 17.2263 15.9787 17.4241 15.5712C17.5476 15.3182 17.6558 15.0566 17.7481 14.7894C17.8382 14.5287 18.1104 14.3701 18.3769 14.4415L19.3438 14.7006C19.6103 14.772 19.77 15.0463 19.684 15.3085C19.5562 15.6984 19.4015 16.0796 19.2222 16.4476C18.9669 16.9714 18.6604 17.4705 18.3134 17.9295C17.9573 18.4007 17.553 18.8385 17.1123 19.2292C16.661 19.6295 16.1637 19.9882 15.6337 20.2942C15.1037 20.6002 14.5435 20.852 13.9721 21.0422C13.4134 21.2285 12.8326 21.3606 12.2465 21.4334C11.6733 21.5045 11.0878 21.5204 10.5051 21.4792C9.93189 21.4384 9.36028 21.3423 8.8043 21.1933C8.24833 21.0444 7.70477 20.8409 7.18791 20.5897C6.66645 20.3365 6.16733 20.03 5.70461 19.6805C5.23815 19.3286 4.80086 18.9252 4.40394 18.4777C4.00315 18.0255 3.64446 17.5282 3.33946 17C3.03446 16.4717 2.78315 15.9124 2.59094 15.3375C2.40286 14.7717 2.27215 14.1913 2.20111 13.6123Z" fill="#8E93A0"/>
<path d="M10.5 9V13.5L13.5 15" stroke="#8E93A0" stroke-width="2" stroke-linecap="round" stroke-linejoin="round"/>
</g>
<defs>
<clipPath id="clip0">
<rect width="24" height="24" fill="white" transform="matrix(-1 0 0 1 24 0)"/>
</clipPath>
</defs>
</svg>
