<svg width="20" height="20" viewBox="0 0 20 20" fill="none" xmlns="http://www.w3.org/2000/svg">
<path d="M9.7375 19.475C15.1154 19.475 19.475 15.1154 19.475 9.7375C19.475 4.35963 15.1154 0 9.7375 0C4.35963 0 0 4.35963 0 9.7375C0 15.1154 4.35963 19.475 9.7375 19.475Z" fill="#F0F0F0"/>
<path d="M1.86693 3.8418C1.10204 4.83696 0.525283 5.98397 0.189453 7.23003H5.25516L1.86693 3.8418Z" fill="#0052B4"/>
<path d="M19.2531 7.22999C18.9173 5.98397 18.3405 4.83696 17.5757 3.8418L14.1875 7.22999H19.2531Z" fill="#0052B4"/>
<path d="M0.189453 12.3613C0.525321 13.6073 1.10208 14.7544 1.86693 15.7495L5.25504 12.3613H0.189453Z" fill="#0052B4"/>
<path d="M15.7495 1.86697C14.7544 1.10208 13.6074 0.525321 12.3613 0.189453V5.25512L15.7495 1.86697Z" fill="#0052B4"/>
<path d="M3.84082 17.5756C4.83599 18.3405 5.98299 18.9173 7.22901 19.2531V14.1875L3.84082 17.5756Z" fill="#0052B4"/>
<path d="M7.22898 0.189453C5.98296 0.525321 4.83595 1.10208 3.84082 1.86693L7.22898 5.25508V0.189453Z" fill="#0052B4"/>
<path d="M12.3613 19.2531C13.6073 18.9173 14.7544 18.3405 15.7495 17.5757L12.3613 14.1875V19.2531Z" fill="#0052B4"/>
<path d="M14.1875 12.3613L17.5757 15.7495C18.3405 14.7544 18.9173 13.6073 19.2531 12.3613H14.1875Z" fill="#0052B4"/>
<path d="M19.582 8.65685H11.1971H11.1971V0.27188C10.7813 0.217753 10.3574 0.189453 9.92695 0.189453C9.49641 0.189453 9.0726 0.217753 8.65686 0.27188V8.65678V8.65682H0.27188C0.217753 9.0726 0.189453 9.49649 0.189453 9.92695C0.189453 10.3575 0.217753 10.7813 0.27188 11.197H8.65678H8.65682V19.582C9.0726 19.6362 9.49641 19.6645 9.92695 19.6645C10.3574 19.6645 10.7813 19.6362 11.1971 19.582V11.1971V11.1971H19.582C19.6362 10.7813 19.6645 10.3575 19.6645 9.92695C19.6645 9.49649 19.6362 9.0726 19.582 8.65685Z" fill="#D80027"/>
<path d="M12.3613 12.3614L16.7065 16.7066C16.9064 16.5068 17.097 16.2979 17.2789 16.0814L13.5588 12.3613H12.3613V12.3614Z" fill="#D80027"/>
<path d="M7.57766 12.3613H7.57759L3.23242 16.7065C3.43219 16.9063 3.64105 17.097 3.85756 17.2789L7.57766 13.5587V12.3613Z" fill="#D80027"/>
<path d="M7.53771 7.57775V7.57767L3.1925 3.23242C2.99265 3.43219 2.80201 3.64105 2.62012 3.85756L6.34026 7.57771H7.53771V7.57775Z" fill="#D80027"/>
<path d="M12.3613 7.54067L16.7066 3.19539C16.5068 2.99554 16.2979 2.8049 16.0814 2.62305L12.3613 6.34319V7.54067Z" fill="#D80027"/>
</svg>
