<svg width="24" height="24" viewBox="0 0 24 24" fill="none" xmlns="http://www.w3.org/2000/svg">
<path d="M20.261 10.309H11.934V13.76H16.726C16.28 15.953 14.413 17.213 11.934 17.213C11.2404 17.2142 10.5533 17.0785 9.91222 16.8135C9.27114 16.5486 8.68868 16.1597 8.19823 15.6691C7.70778 15.1786 7.31899 14.5961 7.05418 13.9549C6.78936 13.3138 6.65372 12.6267 6.65504 11.933C6.65386 11.2395 6.78959 10.5525 7.05447 9.91145C7.31934 9.27044 7.70814 8.68801 8.19858 8.19758C8.68902 7.70714 9.27144 7.31834 9.91245 7.05346C10.5535 6.78859 11.2405 6.65285 11.934 6.65404C13.193 6.65404 14.331 7.10104 15.224 7.83204L17.824 5.23304C16.24 3.85204 14.209 3.00004 11.934 3.00004C10.7598 2.99661 9.59656 3.22535 8.51109 3.67311C7.42562 4.12087 6.43938 4.77881 5.6091 5.60909C4.77881 6.43938 4.12087 7.42562 3.67311 8.51109C3.22535 9.59656 2.99661 10.7598 3.00004 11.934C2.99648 13.1083 3.22513 14.2716 3.67284 15.3571C4.12055 16.4427 4.77849 17.429 5.6088 18.2593C6.43911 19.0896 7.4254 19.7475 8.51093 20.1952C9.59647 20.643 10.7598 20.8716 11.934 20.868C16.401 20.868 20.463 17.619 20.463 11.934C20.463 11.406 20.382 10.837 20.261 10.309Z" fill="#1E2843"/>
</svg>
