<svg width="25" height="19" viewBox="0 0 25 19" fill="none" xmlns="http://www.w3.org/2000/svg">
<path d="M13.9524 17.9997V16.3807C13.9524 15.5219 13.6112 14.6983 13.004 14.091C12.3967 13.4837 11.5731 13.1426 10.7143 13.1426H4.2381C3.3793 13.1426 2.55568 13.4837 1.94842 14.091C1.34116 14.6983 1 15.5219 1 16.3807V17.9997" stroke="#8E93A0" stroke-width="2" stroke-linecap="round" stroke-linejoin="round"/>
<path d="M7.47638 9.9049C9.26473 9.9049 10.7145 8.45516 10.7145 6.66681C10.7145 4.87846 9.26473 3.42871 7.47638 3.42871C5.68803 3.42871 4.23828 4.87846 4.23828 6.66681C4.23828 8.45516 5.68803 9.9049 7.47638 9.9049Z" stroke="#8E93A0" stroke-width="2" stroke-linecap="round" stroke-linejoin="round"/>
<path d="M23.6674 4.44048C23.6693 4.97471 23.5028 5.50172 23.1817 5.97858C22.8009 6.54999 22.2155 7.03062 21.4911 7.36661C20.7667 7.70261 19.9318 7.88071 19.0801 7.88095C18.3678 7.88235 17.6651 7.75753 17.0293 7.51667L13.9531 8.28571L14.9785 5.97858C14.6574 5.50172 14.4909 4.97471 14.4928 4.44048C14.4931 3.80167 14.7306 3.17554 15.1786 2.63223C15.6266 2.08892 16.2674 1.64988 17.0293 1.3643C17.6651 1.12344 18.3678 0.998619 19.0801 1.00001H19.3499C20.4748 1.04656 21.5373 1.40265 22.3339 2.00012C23.1305 2.59759 23.6053 3.39444 23.6674 4.2381V4.44048Z" stroke="#8E93A0" stroke-width="2" stroke-linecap="round" stroke-linejoin="round"/>
</svg>
