<svg width="30" height="30" viewBox="0 0 30 30" fill="none" xmlns="http://www.w3.org/2000/svg">
<path d="M24.7265 6.7167C24.1645 6.15264 23.4972 5.70519 22.7628 5.39991C22.0284 5.09463 21.2412 4.9375 20.4463 4.9375C19.6513 4.9375 18.8641 5.09463 18.1297 5.39991C17.3953 5.70519 16.728 6.15264 16.166 6.7167L14.9997 7.88677L13.8334 6.7167C12.6982 5.57787 11.1585 4.93809 9.55315 4.93809C7.94775 4.93809 6.40811 5.57787 5.27293 6.7167C4.13774 7.85552 3.5 9.40009 3.5 11.0106C3.5 12.6212 4.13774 14.1657 5.27293 15.3046L6.43926 16.4746L14.9997 25.0625L23.5602 16.4746L24.7265 15.3046C25.2887 14.7408 25.7348 14.0714 26.0391 13.3346C26.3434 12.5978 26.5 11.8081 26.5 11.0106C26.5 10.2131 26.3434 9.42342 26.0391 8.68666C25.7348 7.94989 25.2887 7.28049 24.7265 6.7167V6.7167Z" stroke="#C6CBDA" stroke-width="1.5" stroke-linecap="round" stroke-linejoin="round"/>
</svg>
