<svg width="25" height="24" viewBox="0 0 25 24" fill="none" xmlns="http://www.w3.org/2000/svg">
<rect y="2" width="25" height="20" rx="3" fill="white" fill-opacity="0.43"/>
<path d="M2.92969 2H22.0703C23.6857 2 25 3.29404 25 4.88462V7.26418L14.2485 15.1383C13.7256 15.5212 13.1128 15.7127 12.5 15.7127C11.8872 15.7127 11.2744 15.5213 10.7515 15.1383L0 7.26418V4.88462C0 3.29404 1.31426 2 2.92969 2ZM1.95312 6.29788L11.9171 13.5952C12.2658 13.8505 12.7342 13.8505 13.0828 13.5952L23.0469 6.29788V4.88462C23.0469 4.35442 22.6088 3.92308 22.0703 3.92308H2.92969C2.39121 3.92308 1.95312 4.35442 1.95312 4.88462V6.29788ZM1.95312 11.0913L0 9.66091V19.1154C0 20.706 1.31426 22 2.92969 22H22.0703C23.6857 22 25 20.706 25 19.1154V9.66091L23.0469 11.0913V19.1154C23.0469 19.6456 22.6088 20.0769 22.0703 20.0769H2.92969C2.39121 20.0769 1.95312 19.6456 1.95312 19.1154V11.0913Z" fill="white"/>
</svg>
