<svg width="24" height="24" viewBox="0 0 24 24" fill="none" xmlns="http://www.w3.org/2000/svg">
<path d="M20.9032 4.81068L21.1617 4.38387L20.9032 4.81069C21.2447 5.01758 21.4332 5.40556 21.3847 5.80194L21.3808 5.83383C21.3501 6.08386 21.2318 6.31495 21.0468 6.48597L20.3564 7.12436C19.7477 7.68714 19.5907 8.58761 19.9732 9.32313C20.1027 9.57229 20.099 9.86973 19.9634 10.1156L19.7041 10.5854C19.5461 10.8717 19.4388 11.1831 19.3868 11.5059L19.8804 11.5854L19.3868 11.5059L19.3822 11.5345C19.3021 12.0311 19.0385 12.4796 18.6436 12.7911L17.4376 13.7423C17.3899 13.7799 17.331 13.8003 17.2703 13.8003C16.9734 13.8003 16.6859 13.9043 16.4577 14.0943L16.1528 14.348C15.941 14.5243 15.6809 14.6325 15.4065 14.6583L14.8734 14.7084C14.2622 14.7659 13.6823 15.0055 13.2087 15.3961C12.9041 15.6474 12.534 15.8063 12.1411 15.8551C11.4825 15.937 10.5006 16.061 9.67962 16.1731C9.26975 16.229 8.89649 16.2824 8.62273 16.3263C8.48697 16.3481 8.3693 16.3685 8.28199 16.3866C8.24011 16.3953 8.19409 16.4057 8.15314 16.4178C8.13473 16.4232 8.1006 16.4338 8.06332 16.4509C8.0456 16.459 8.01032 16.476 7.97113 16.5044C7.95065 16.5192 7.87645 16.5732 7.82171 16.6744C7.81741 16.681 7.81091 16.6907 7.80175 16.7041C7.77666 16.7409 7.73946 16.794 7.69126 16.8618C7.59531 16.9968 7.46157 17.182 7.30699 17.3946C6.99813 17.8193 6.6097 18.3486 6.28234 18.7935C6.11852 19.0161 5.79245 19.0367 5.60113 18.8339C5.29629 18.5109 4.85992 18.3458 4.4176 18.3863L2.64846 18.5481C2.56875 18.5554 2.5 18.4927 2.5 18.4126C2.5 18.3705 2.51954 18.3307 2.5529 18.3049L4.61761 16.7104C5.07466 16.3574 5.10244 15.6805 4.68309 15.2907V14.2009C4.68309 13.5624 4.93848 12.9504 5.39235 12.5012L5.97109 11.9285C6.18787 11.714 6.44208 11.5409 6.72116 11.4179L8.65423 10.5658C8.80246 10.5004 8.96268 10.4667 9.12467 10.4667C9.56166 10.4667 9.98843 10.3345 10.3489 10.0876L12.1337 8.86496C12.1999 8.81956 12.2872 8.81918 12.3539 8.86401C12.6905 9.09038 13.1189 9.13068 13.4919 8.97106L14.0765 8.72083C14.4447 8.56327 14.8642 8.57998 15.2187 8.76634L15.4133 8.86867C15.9808 9.16704 16.6598 9.16225 17.223 8.8559C17.5957 8.65318 17.8907 8.33266 18.0619 7.94447L19.2811 5.17927C19.4021 4.9049 19.6401 4.69954 19.9292 4.62006C20.1457 4.56056 20.3759 4.57585 20.5826 4.66346L20.7734 4.74433C20.8182 4.76331 20.8616 4.78548 20.9032 4.81068Z" stroke="#1E2843"/>
</svg>
