<svg width="30" height="30" viewBox="0 0 30 30" fill="none" xmlns="http://www.w3.org/2000/svg">
<path d="M28.6811 5.08148C28.3024 4.10344 27.7236 3.21525 26.9818 2.47376C26.2401 1.73228 25.3516 1.15384 24.3735 0.775474C23.2288 0.345785 22.0195 0.113444 20.7971 0.088345C19.2216 0.0196321 18.7226 0 14.7275 0C10.7323 0 10.2202 -1.63913e-07 8.65783 0.088345C7.43635 0.11216 6.22794 0.344549 5.08476 0.775474C4.10631 1.1534 3.21767 1.73168 2.47585 2.47322C1.73403 3.21476 1.15541 4.10318 0.77711 5.08148C0.347335 6.22607 0.115527 7.43545 0.0916172 8.65783C0.0212683 10.2317 0 10.7307 0 14.7275C0 18.7226 -1.49012e-08 19.2314 0.0916172 20.7971C0.116158 22.0209 0.346836 23.2282 0.77711 24.3751C1.15647 25.353 1.73565 26.2411 2.47765 26.9825C3.21965 27.724 4.10815 28.3025 5.08639 28.6811C6.22741 29.1281 7.43633 29.377 8.6611 29.4173C10.2366 29.486 10.7356 29.5073 14.7307 29.5073C18.7259 29.5073 19.238 29.5073 20.8004 29.4173C22.0227 29.3924 23.2319 29.1607 24.3767 28.7318C25.3547 28.3526 26.2428 27.7736 26.9845 27.0319C27.7262 26.2903 28.3051 25.4021 28.6844 24.4242C29.1146 23.279 29.3453 22.0716 29.3699 20.8478C29.4402 19.274 29.4615 18.775 29.4615 14.7782C29.4615 10.7814 29.4615 10.2742 29.3699 8.70854C29.3508 7.46888 29.1178 6.24183 28.6811 5.08148Z" fill="#1E2843"/>
<path d="M14.565 7C12.5586 7 10.6344 7.79702 9.21573 9.21573C7.79702 10.6344 7 12.5586 7 14.565C7 16.5713 7.79702 18.4955 9.21573 19.9142C10.6344 21.3329 12.5586 22.1299 14.565 22.1299C16.5713 22.1299 18.4955 21.3329 19.9142 19.9142C21.3329 18.4955 22.1299 16.5713 22.1299 14.565C22.1299 12.5586 21.3329 10.6344 19.9142 9.21573C18.4955 7.79702 16.5713 7 14.565 7ZM14.565 19.4779C13.2615 19.4779 12.0115 18.9601 11.0898 18.0385C10.1681 17.1168 9.65036 15.8668 9.65036 14.5633C9.65036 13.2599 10.1681 12.0098 11.0898 11.0882C12.0115 10.1665 13.2615 9.64872 14.565 9.64872C15.8684 9.64872 17.1185 10.1665 18.0401 11.0882C18.9618 12.0098 19.4796 13.2599 19.4796 14.5633C19.4796 15.8668 18.9618 17.1168 18.0401 18.0385C17.1185 18.9601 15.8684 19.4779 14.565 19.4779Z" fill="#D1F1FD"/>
<path d="M22.7636 8.52726C23.7377 8.52726 24.5273 7.73766 24.5273 6.76363C24.5273 5.7896 23.7377 5 22.7636 5C21.7896 5 21 5.7896 21 6.76363C21 7.73766 21.7896 8.52726 22.7636 8.52726Z" fill="#D1F1FD"/>
</svg>
