<svg width="13" height="17" viewBox="0 0 13 17" fill="none" xmlns="http://www.w3.org/2000/svg">
<path d="M10.978 12.194L12.672 13.162C12.2467 14.1593 11.6233 14.9293 10.802 15.472C9.99533 16.0147 9.03467 16.286 7.92 16.286C6.30667 16.286 4.98667 15.7433 3.96 14.658C2.93333 13.5727 2.288 12.0913 2.024 10.214H0.418V8.784H1.892V8.3C1.892 7.992 1.89933 7.76467 1.914 7.618H0.418V6.21H2.046C2.33933 4.39133 2.992 2.954 4.004 1.898C5.03067 0.841999 6.336 0.313999 7.92 0.313999C10.164 0.313999 11.7407 1.33333 12.65 3.372L10.956 4.34C10.34 2.976 9.328 2.294 7.92 2.294C6.92267 2.294 6.094 2.63133 5.434 3.306C4.78867 3.98067 4.34867 4.94867 4.114 6.21H9.328V7.618H3.96C3.94533 7.76467 3.938 7.992 3.938 8.3V8.784H9.328V10.214H4.092C4.29733 11.5193 4.73 12.524 5.39 13.228C6.05 13.932 6.89333 14.284 7.92 14.284C9.372 14.284 10.3913 13.5873 10.978 12.194Z" fill="#1E2843"/>
</svg>
