<svg width="48" height="24" viewBox="0 0 48 24" fill="none" xmlns="http://www.w3.org/2000/svg">
<g clip-path="url(#clip0)">
<path d="M14.664 1.301L15.9179 3.98721L13.02 4.69317" stroke="#B7BCCA" stroke-width="1.5" stroke-linecap="round" stroke-linejoin="round"/>
<path d="M14.4391 21.0496C12.4596 21.6992 10.3143 21.6951 8.32646 21.0379C6.33866 20.3808 4.61607 19.1061 3.41827 17.4061C2.22046 15.7062 1.61234 13.6729 1.68553 11.6127C1.75873 9.5526 2.50928 7.57719 3.82408 5.98419C5.13888 4.3912 6.94669 3.26692 8.97511 2.78078C11.0035 2.29463 13.1426 2.47297 15.0701 3.2889" stroke="#B7BCCA" stroke-width="1.5" stroke-linecap="round" stroke-linejoin="round"/>
<path d="M7.324 16V14.764L10.192 11.812C10.832 11.14 11.152 10.58 11.152 10.132C11.152 9.804 11.048 9.54 10.84 9.34C10.64 9.14 10.38 9.04 10.06 9.04C9.428 9.04 8.96 9.368 8.656 10.024L7.264 9.208C7.528 8.632 7.908 8.192 8.404 7.888C8.9 7.584 9.444 7.432 10.036 7.432C10.796 7.432 11.448 7.672 11.992 8.152C12.536 8.624 12.808 9.264 12.808 10.072C12.808 10.944 12.348 11.84 11.428 12.76L9.784 14.404H12.94V16H7.324ZM17.0378 16.168C15.9898 16.168 15.1658 15.772 14.5658 14.98C13.9738 14.18 13.6778 13.12 13.6778 11.8C13.6778 10.48 13.9738 9.424 14.5658 8.632C15.1658 7.832 15.9898 7.432 17.0378 7.432C18.0938 7.432 18.9178 7.832 19.5098 8.632C20.1018 9.424 20.3978 10.48 20.3978 11.8C20.3978 13.12 20.1018 14.18 19.5098 14.98C18.9178 15.772 18.0938 16.168 17.0378 16.168ZM15.7658 13.852C16.0538 14.316 16.4778 14.548 17.0378 14.548C17.5978 14.548 18.0218 14.312 18.3098 13.84C18.6058 13.368 18.7538 12.688 18.7538 11.8C18.7538 10.904 18.6058 10.22 18.3098 9.748C18.0218 9.276 17.5978 9.04 17.0378 9.04C16.4778 9.04 16.0538 9.276 15.7658 9.748C15.4778 10.22 15.3338 10.904 15.3338 11.8C15.3338 12.696 15.4778 13.38 15.7658 13.852ZM31.1604 9.832C31.8484 9.832 32.3964 10.056 32.8044 10.504C33.2204 10.952 33.4284 11.552 33.4284 12.304V16H31.8804V12.412C31.8804 12.052 31.7924 11.772 31.6164 11.572C31.4404 11.372 31.1924 11.272 30.8724 11.272C30.5204 11.272 30.2444 11.388 30.0444 11.62C29.8524 11.852 29.7564 12.188 29.7564 12.628V16H28.2084V12.412C28.2084 12.052 28.1204 11.772 27.9444 11.572C27.7684 11.372 27.5204 11.272 27.2004 11.272C26.8564 11.272 26.5804 11.388 26.3724 11.62C26.1724 11.852 26.0724 12.188 26.0724 12.628V16H24.5244V10H26.0724V10.636C26.4324 10.1 26.9884 9.832 27.7404 9.832C28.4764 9.832 29.0204 10.12 29.3724 10.696C29.7724 10.12 30.3684 9.832 31.1604 9.832ZM35.5112 9.28C35.2552 9.28 35.0312 9.188 34.8392 9.004C34.6552 8.812 34.5632 8.588 34.5632 8.332C34.5632 8.076 34.6552 7.852 34.8392 7.66C35.0312 7.468 35.2552 7.372 35.5112 7.372C35.7752 7.372 35.9992 7.468 36.1832 7.66C36.3752 7.852 36.4712 8.076 36.4712 8.332C36.4712 8.588 36.3752 8.812 36.1832 9.004C35.9992 9.188 35.7752 9.28 35.5112 9.28ZM34.7432 16V10H36.2912V16H34.7432ZM41.044 9.832C41.7 9.832 42.24 10.052 42.664 10.492C43.096 10.932 43.312 11.54 43.312 12.316V16H41.764V12.508C41.764 12.108 41.656 11.804 41.44 11.596C41.224 11.38 40.936 11.272 40.576 11.272C40.176 11.272 39.856 11.396 39.616 11.644C39.376 11.892 39.256 12.264 39.256 12.76V16H37.708V10H39.256V10.672C39.632 10.112 40.228 9.832 41.044 9.832Z" fill="#B7BCCA"/>
</g>
<defs>
<clipPath id="clip0">
<rect width="48" height="24" fill="white"/>
</clipPath>
</defs>
</svg>
