<svg width="20" height="20" viewBox="0 0 20 20" fill="none" xmlns="http://www.w3.org/2000/svg">
<path d="M9.97793 3.79833C9.05793 2.96 7.8846 2.5 6.64793 2.5C5.33293 2.5 4.08793 3.01917 3.1371 3.965C1.17626 5.93417 1.1771 9.01417 3.13876 10.975L9.24876 17.085C9.39043 17.3342 9.66376 17.495 9.97793 17.495C10.2463 17.495 10.4854 17.3592 10.6379 17.1542L16.8171 10.975C18.7788 9.01333 18.7788 5.93417 16.8154 3.96167C15.8679 3.01917 14.6229 2.5 13.3079 2.5C12.0721 2.5 10.8979 2.96 9.97793 3.79833ZM15.6371 5.14C16.9396 6.44917 16.9404 8.49417 15.6388 9.79667L9.97793 15.4575L4.3171 9.79667C3.01543 8.49417 3.01626 6.44917 4.31543 5.14333C4.94876 4.51333 5.7771 4.16667 6.64793 4.16667C7.51876 4.16667 8.34376 4.51333 8.9721 5.14167L9.38876 5.55833C9.7146 5.88417 10.2413 5.88417 10.5671 5.55833L10.9838 5.14167C12.2438 3.88417 14.3788 3.8875 15.6371 5.14Z" fill="#1E2843"/>
</svg>
